PathFileType	4	(X/Y/Z)	pose_F01_0-73.trc
DataRate	CameraRate	NumFrames	NumMarkers	Units	OrigDataRate	OrigDataStartFrame	OrigNumFrames
30	30	11	21	m	30	60	73
Frame#	Time	CHip			RHip			RKnee			RAnkle			RBigToe			RSmallToe			RHeel			LHip			LKnee			LAnkle			LBigToe			LSmallToe			LHeel			Neck			Nose			RShoulder			RElbow			RWrist			LShoulder			LElbow			LWrist			
		X1	Y1	Z1	X2	Y2	Z2	X3	Y3	Z3	X4	Y4	Z4	X5	Y5	Z5	X6	Y6	Z6	X7	Y7	Z7	X8	Y8	Z8	X9	Y9	Z9	X10	Y10	Z10	X11	Y11	Z11	X12	Y12	Z12	X13	Y13	Z13	X14	Y14	Z14	X15	Y15	Z15	X16	Y16	Z16	X17	Y17	Z17	X18	Y18	Z18	X19	Y19	Z19	X20	Y20	Z20	X21	Y21	Z21	
60	2.0	-0.223389864350174	1.8794415792525654	-0.4238680587275983	-0.2341104697542183	1.8749012614054354	-0.36552292940250314	-0.2635080799647289	1.7351309108176534	-0.3077779225018306													-0.21334530478531538	1.8832042839395717	-0.4974067161818043	-0.20868772064735738	1.7437219121879275	-0.4816434512952306	-0.2090979034521717	1.6132077863355991	-0.4715807283856804	-0.21170223038164182	1.5887029814714648	-0.5113597660055264	-0.2011605177262133	1.593983086652971	-0.5234301745442911	-0.21240932311635427	1.5814475621863993	-0.5043245206780703	-0.22233122173103834	2.033583997470401	-0.43146969875573216	-0.2259764385459539	2.096850278743385	-0.46011056129320793	-0.23627796640898122	2.0282389088000645	-0.3528250292739372	-0.2659513962297684	2.0364124918578477	-0.28544797478375894	-0.24653989133991175	2.084460681672805	-0.3529266695476547	-0.20460586737964906	2.0387490811334397	-0.5036454398636014	-0.19955357192097495	2.0788099498423414	-0.6333486749807375	-0.2058225603993113	2.1229251809122536	-0.5547113343499688
61	2.033333333333333	-0.22444544219229054	1.8807643722770881	-0.427335203014605	-0.23433815512255646	1.8749673965506921	-0.36571314816309747	-0.24391489768246358	1.7430112450165116	-0.3217751802487708													-0.21148540378727212	1.8846610768423941	-0.49984929738526385	-0.20870249594239335	1.7439920061346015	-0.48170931188465715	-0.2090979034521717	1.6132077863355991	-0.4715807283856804	-0.21178769817761067	1.5887829432810399	-0.5115668605188483	-0.20303463746623043	1.5957607780747707	-0.5217509053309649	-0.21240932311635427	1.5814475621863993	-0.5043245206780703	-0.22148339378686765	2.0326276842842144	-0.43673852514652306	-0.22589299317413306	2.099203815420415	-0.46064399419087265	-0.23456241140463446	2.0271812400128506	-0.3550339891919749	-0.2658947712974693	2.036877453284182	-0.2855482096598115	-0.24809209958231188	2.0894198126139347	-0.35975560367656906	-0.20265965526580532	2.03877781693381	-0.5058006380895731	-0.1996075012624761	2.077595463114663	-0.6334446430053088	-0.20578933826740278	2.1215985382388367	-0.5549636839423268
62	2.066666666666667	-0.2243839716257383	1.883274665854786	-0.4279124628702936	-0.23524694836768642	1.8778417603923276	-0.36938887575030455	-0.2446096413329215	1.7433864697021462	-0.31632251730345134													-0.21143134064833186	1.8846241410119233	-0.4999646440363042	-0.20870426276523146	1.7476466570950522	-0.4820179864696337	-0.2090979034521717	1.6132077863355991	-0.4715807283856804	-0.20979868704129018	1.589045847337892	-0.5138778260623449	-0.2011211451084335	1.5963821042163888	-0.5240325026170487	-0.21240932311635427	1.5814475621863993	-0.5043245206780703	-0.2213777601917108	2.0338130886038934	-0.436717768203428	-0.22503616195529996	2.099383100928789	-0.4657549433301	-0.23446967763214524	2.0296423920082933	-0.3555603049542216	-0.26415450099908266	2.0331132373984975	-0.28646395473587594	-0.24668402423716856	2.0848409763968228	-0.3538201583722987	-0.2035082060439591	2.038895976995272	-0.5088845685105137	-0.19953106900927886	2.076866003190905	-0.6329453711111056	-0.20488924535504494	2.1193804796423015	-0.559658906618673
63	2.1	-0.22365912923552897	1.883090834698089	-0.42471282492098034	-0.23528578427427876	1.8779878834517982	-0.36925557145410576	-0.24287881372109293	1.7411437558790108	-0.3180123420117934													-0.21075267931659278	1.8873709410219752	-0.49718099821028705	-0.20847629558187294	1.7478773914509804	-0.4822650104729967	-0.2090979034521717	1.6132077863355991	-0.4715807283856804	-0.21166741987824025	1.5882350619240833	-0.511579492839318	-0.202808798352098	1.594784851863698	-0.5217979371549584	-0.21240932311635427	1.5814475621863993	-0.5043245206780703	-0.22037414072665845	2.0337508763147665	-0.4336638893737149	-0.22403070568118696	2.0992438296128926	-0.4627424559072003	-0.23440156036752258	2.0296119616632304	-0.35551727006476325	-0.26564976995517803	2.0311318247410917	-0.2902534700343419	-0.24785557624992482	2.0810390484873293	-0.3554749645133802	-0.20257753002876863	2.0388447694200065	-0.5058156594278399	-0.19866592955483253	2.074778260742771	-0.6295650076020938	-0.20305635996738666	2.1189691496546517	-0.5536647845414998
64	2.1333333333333333	-0.22348123776581927	1.884283636291807	-0.4248317710309312	-0.2343719638537937	1.8793070587754956	-0.36645342373238177	-0.24289328404301425	1.7420581551551437	-0.31818866049022837													-0.21056160995484194	1.8887163710595625	-0.4973547834458873	-0.20855372707952846	1.7493440965888751	-0.4822908177589976	-0.2090979034521717	1.6132077863355991	-0.4715807283856804	-0.21145902215262125	1.5870189617151373	-0.5115038155222823	-0.20299890477351543	1.5930120469429618	-0.5211963915968395	-0.21240932311635427	1.5814475621863993	-0.5043245206780703	-0.22033892475622824	2.0361172312055245	-0.43404459154335545	-0.22502381944118396	2.1006933781947406	-0.46644343064566923	-0.23444999633618505	2.0296353179993445	-0.3554506722217735	-0.26671144860023194	2.0253502173959896	-0.291674836804687	-0.2456057699409553	2.072072452234136	-0.33478137570533983	-0.2025503394466887	2.0389153540521723	-0.5057872901402941	-0.1986640991784258	2.0713930980120634	-0.6287500143156124	-0.2058204517448028	2.1179682186789317	-0.5630759125867426
65	2.1666666666666665	-0.22326659080411965	1.8816939827628238	-0.42436101396085085	-0.23232564701260053	1.8764192751374966	-0.3680159925422917	-0.24290775436493556	1.7429725544312769	-0.3183649789686633													-0.21053486280053899	1.8847014002646143	-0.4967894963009564	-0.20871359735164874	1.744469753438043	-0.4817033185225749	-0.2090979034521717	1.6132077863355991	-0.4715807283856804	-0.21139298086239508	1.5867412869176525	-0.51148739397105	-0.2025922940462433	1.593743893329774	-0.521746742847849	-0.21240932311635427	1.5814475621863993	-0.5043245206780703	-0.22140232379732702	2.033871239412019	-0.43683688894976813	-0.2259829725820192	2.102029530301986	-0.4694128353610336	-0.2344243565735729	2.029544174033008	-0.3556709202660319	-0.26777312724528585	2.019568610050888	-0.29309620357503213	-0.24335596363198575	2.0631058559809423	-0.31408778689729944	-0.20556973876590443	2.0376789468051157	-0.5068457743102349	-0.19965282528887884	2.0651822336232137	-0.6305258096842584	-0.20584511254818325	2.1122971528051235	-0.5709078764383289
66	2.2	-0.22161450969634908	1.8842111880653427	-0.4269565663366466	-0.23250386136859164	1.8793159275168376	-0.3686073130275243	-0.24292222468685687	1.7438869537074098	-0.31854129744709825													-0.2105261035337292	1.888580939774847	-0.4973861553802648	-0.20873668720921723	1.7477843750250002	-0.4820578908868472	-0.2090979034521717	1.6132077863355991	-0.4715807283856804	-0.2113591106354625	1.586965179701608	-0.511547224202325	-0.20069028259637964	1.594310551678118	-0.5239144733809029	-0.21240932311635427	1.5814475621863993	-0.5043245206780703	-0.22142286167434605	2.0338808895412988	-0.4367102698715455	-0.22697004288897843	2.1035721120116526	-0.4731986820840507	-0.2361730650004973	2.0305969993596458	-0.35341431772201537	-0.26883480589033976	2.013787002705786	-0.29451757034537723	-0.25027819789396416	2.058010556430009	-0.311322353023299	-0.20354697147037523	2.04022907774793	-0.5094698769191901	-0.20084619310243657	2.059617723577931	-0.633456128535437	-0.20286994706542968	2.108689729910202	-0.5781187569090064
67	2.2333333333333334	-0.22362885630163232	1.8854808549089725	-0.425094880560604	-0.235487719785113	1.8806232955412663	-0.3697960144475885	-0.2449172437777733	1.7421361386846788	-0.32074346735823356													-0.2125655375560115	1.8882339218952924	-0.49516936954182417	-0.20853467917262866	1.7462223052800652	-0.4820388145974415	-0.2090979034521717	1.6132077863355991	-0.4715807283856804	-0.2116734782974428	1.5882003663374265	-0.5115715734842484	-0.20288541998194898	1.5952659467857573	-0.5216930611111649	-0.21240932311635427	1.5814475621863993	-0.5043245206780703	-0.22040965380249922	2.0362035832845757	-0.4340465366269904	-0.22793231322954605	2.1049942369805152	-0.4768832635090797	-0.23614269209312902	2.030598024027785	-0.3532882784298546	-0.26989648453539367	2.008005395360684	-0.29593893711572233	-0.25494666973672825	2.06054618292021	-0.3185521739247181	-0.20345640788437455	2.041584310246581	-0.5094383714059133	-0.19978574180334518	2.0492223918795736	-0.6369563114857758	-0.20180212902541525	2.1053229445716566	-0.5824336905650647
68	2.2666666666666666	-0.22357988239668594	1.8840362142184603	-0.4247123770802579	-0.23441573040621272	1.8789571588575162	-0.3663811481921733	-0.24691226286868975	1.7403853236619478	-0.3229456372693689													-0.2147300099916138	1.8868367905118593	-0.4927572799170703	-0.2085234351457969	1.7479541979343443	-0.4823392626291467	-0.2090979034521717	1.6132077863355991	-0.4715807283856804	-0.21108266271784537	1.5878386506767965	-0.5098109316874904	-0.20321050435643778	1.5941216325137093	-0.5212191986739432	-0.21240932311635427	1.5814475621863993	-0.5043245206780703	-0.22136473880967794	2.0363148611093824	-0.4371745745473661	-0.22787831952322377	2.106095637309543	-0.47673332704102367	-0.2352345462096822	2.029319785912443	-0.35029791081122796	-0.2709581631804476	2.0022237880155824	-0.2973603038860675	-0.25961514157949234	2.063081809410411	-0.3257819948261372	-0.2053433957530732	2.041990882442943	-0.515719280815612	-0.19806868046618567	2.039318098640459	-0.6383434708738789	-0.20340592932592347	2.096130158223704	-0.6044904294992332
69	2.3	-0.2235134753224996	1.8830055844703104	-0.4244355544155009	-0.23704937240686855	1.8761921870251863	-0.36684779931357686	-0.2478762094592837	1.7389061446445464	-0.3262419319957459													-0.2145037647578842	1.8871385813798582	-0.49251968964831816	-0.20856419061834658	1.7457045969465905	-0.4819130481749389	-0.2090979034521717	1.6132077863355991	-0.4715807283856804	-0.21049184713824798	1.5874769350161664	-0.5080502898907322	-0.201589003010786	1.5935451611803635	-0.5185295520394625	-0.21240932311635427	1.5814475621863993	-0.5043245206780703	-0.22042746125023246	2.037503555717537	-0.43455878989881064	-0.22881978763094957	2.1063265872769588	-0.4797339381921716	-0.23341395096542072	2.033712393749745	-0.34599097795845585	-0.2720198418255015	1.9964421806704804	-0.2987816706564126	-0.2642836134222564	2.065617435900612	-0.3330118157275562	-0.20343351984313035	2.0432390853756157	-0.5183492465335959	-0.19830864330911993	2.0256775638537317	-0.6361446226965309	-0.20219682126113336	2.0905454714724	-0.6072358080443382
70	2.3333333333333335	-0.22360252940704067	1.884243500914226	-0.42473806705249884	-0.23715607744522116	1.8775218791909014	-0.3670981728583963	-0.24884015604987766	1.737426965627145	-0.3295382267221229													-0.21459453840479137	1.8856967217931975	-0.49253120593843314	-0.2087442405910185	1.7441321595838504	-0.4817305987095331	-0.2090979034521717	1.6132077863355991	-0.4715807283856804	-0.2116577766646276	1.5880188668546482	-0.5115197984810752	-0.20318760542049066	1.5940845822677951	-0.5211618545755657	-0.21240932311635427	1.5814475621863993	-0.5043245206780703	-0.22034386004875944	2.0374484702459092	-0.43464750228265586	-0.22884776786048358	2.106428813059869	-0.479771314244028	-0.23324842144410352	2.0336596016666397	-0.3453395809023992	-0.26465722291550364	1.980649782336007	-0.2807894213778373	-0.2691808554678768	2.051133980981019	-0.32039084385955885	-0.20221774720802377	2.04102514572001	-0.5227336756319191	-0.19593185846214592	2.0110920507562757	-0.6341553286467069	-0.20688547341029367	2.0777475124358205	-0.6296379534694773
